<svg width="24" height="24" viewBox="0 0 24 24" fill="none" xmlns="http://www.w3.org/2000/svg">
<path d="M20.028 0.923096H6.39165C5.39165 0.923096 4.57346 1.7481 4.57346 2.75643V4.13143H3.20983C2.4371 4.13143 1.84619 4.72726 1.84619 5.50643C1.84619 6.2856 2.4371 6.88143 3.20983 6.88143H4.57346V10.5481H3.20983C2.4371 10.5481 1.84619 11.1439 1.84619 11.9231C1.84619 12.7023 2.4371 13.2981 3.20983 13.2981H4.57346V16.9648H3.20983C2.4371 16.9648 1.84619 17.5606 1.84619 18.3398C1.84619 19.1189 2.4371 19.7148 3.20983 19.7148H4.57346V21.0898C4.57346 22.0981 5.39165 22.9231 6.39165 22.9231H20.028C21.028 22.9231 21.8462 22.0981 21.8462 21.0898V2.75643C21.8462 1.7481 21.028 0.923096 20.028 0.923096Z" fill="#BEBEBE"/>
</svg>
