<svg width="24" height="24" viewBox="0 0 24 24" fill="none" xmlns="http://www.w3.org/2000/svg">
<path d="M2.77 10C2.34 10 2 9.66 2 9.23V6.92C2 4.21 4.21 2 6.92 2H9.23C9.66 2 10 2.34 10 2.77C10 3.2 9.66 3.54 9.23 3.54H6.92C5.05 3.54 3.54 5.06 3.54 6.92V9.23C3.54 9.66 3.19 10 2.77 10Z" fill="#BEBEBE"/>
<path d="M21.23 10C20.81 10 20.46 9.66 20.46 9.23V6.92C20.46 5.05 18.94 3.54 17.08 3.54H14.77C14.34 3.54 14 3.19 14 2.77C14 2.35 14.34 2 14.77 2H17.08C19.79 2 22 4.21 22 6.92V9.23C22 9.66 21.66 10 21.23 10Z" fill="#BEBEBE"/>
<path d="M16.4407 22H14.8701C14.3955 22 14 21.6153 14 21.1287C14 20.6535 14.3842 20.2574 14.8701 20.2574H16.4407C18.5537 20.2574 20.2599 18.5375 20.2599 16.4328V14.8713C20.2599 14.396 20.6441 14 21.1299 14C21.6045 14 22 14.3847 22 14.8713V16.4328C22 19.4993 19.5028 22 16.4407 22Z" fill="#BEBEBE"/>
<path d="M9.23 22H6.92C4.21 22 2 19.79 2 17.08V14.77C2 14.34 2.34 14 2.77 14C3.2 14 3.54 14.34 3.54 14.77V17.08C3.54 18.95 5.06 20.46 6.92 20.46H9.23C9.65 20.46 10 20.8 10 21.23C10 21.66 9.66 22 9.23 22Z" fill="#BEBEBE"/>
<path d="M18.2545 11H16.9378H7.06224H5.74551C5.32918 11 5 11.4545 5 12C5 12.5455 5.32918 13 5.74551 13H7.06224H16.9378H18.2545C18.6708 13 19 12.5455 19 12C19 11.4545 18.6708 11 18.2545 11Z" fill="#BEBEBE"/>
<path d="M7 14.2373V14.6102C7 16.4859 8.31373 18 9.94119 18H14.0588C15.6863 18 17 16.4859 17 14.6102V14.2373C17 14.1017 16.9118 14 16.7941 14H7.20588C7.08824 14 7 14.1017 7 14.2373Z" fill="#BEBEBE"/>
<path d="M7 9.76271V9.3898C7 7.51411 8.31373 6 9.94119 6H14.0588C15.6863 6 17 7.51411 17 9.3898V9.76271C17 9.89831 16.9118 10 16.7941 10H7.20588C7.08824 10 7 9.89831 7 9.76271Z" fill="#BEBEBE"/>
</svg>
